<svg width="116" height="102" viewBox="0 0 116 102" fill="none" xmlns="http://www.w3.org/2000/svg">
<path d="M108 52C108 63.7425 103.867 75.1103 96.3259 84.1111C88.7847 93.1119 78.3161 99.1714 66.7551 101.228C55.194 103.284 43.2782 101.205 33.0959 95.3565C22.9137 89.5078 15.1148 80.262 11.0661 69.2396L14.8493 67.85C18.5717 77.9839 25.7419 86.4844 35.1034 91.8616C44.4649 97.2389 55.4202 99.1498 66.0493 97.2594C76.6785 95.369 86.3032 89.798 93.2365 81.5227C100.17 73.2474 103.97 62.7959 103.97 52H108Z" fill="white"/>
<path d="M8.09388 46.9374C8.79438 35.5225 13.3869 24.6927 21.1055 16.2539C28.8242 7.81512 39.2025 2.27741 50.5099 0.564205C61.8172 -1.149 73.3701 1.06586 83.2421 6.83944C93.1142 12.613 100.709 21.5964 104.759 32.2914L100.871 33.7641C97.157 23.9584 90.1941 15.7221 81.143 10.4287C72.092 5.13521 61.4998 3.10454 51.1327 4.67528C40.7657 6.24601 31.2505 11.3232 24.1737 19.0602C17.0969 26.7973 12.8863 36.7265 12.2441 47.1921L8.09388 46.9374Z" fill="white"/>
<path d="M2 35L9.89474 49L22 38.6" stroke="white" stroke-width="3"/>
<path d="M114 64L106.105 50L94 60.4" stroke="white" stroke-width="3"/>
</svg>
