<svg width="269" height="266" viewBox="0 0 269 266" fill="none" xmlns="http://www.w3.org/2000/svg">
<path d="M164.166 227.24C139.696 234.243 113.448 231.254 91.1787 218.929C68.9099 206.604 52.4393 185.949 45.3802 161.495C45.09 160.485 45.0015 159.428 45.1197 158.384C45.238 157.34 45.5608 156.329 46.0696 155.41C46.5784 154.491 47.2633 153.681 48.0851 153.026C48.907 152.372 49.8498 151.885 50.8596 151.595C51.8694 151.305 52.9265 151.216 53.9705 151.335C55.0145 151.453 56.025 151.776 56.9443 152.284C57.8635 152.793 58.6736 153.478 59.3282 154.3C59.9828 155.122 60.4691 156.065 60.7594 157.074C65.1303 172.281 73.9124 185.85 85.9952 196.066C98.0779 206.282 112.919 212.685 128.641 214.466C144.362 216.247 160.26 213.326 174.321 206.073C188.383 198.819 199.978 187.558 207.64 173.715C215.303 159.871 218.688 144.066 217.367 128.299C216.047 112.532 210.081 97.5101 200.223 85.1335C190.366 72.757 177.059 63.5815 161.987 58.7674C146.915 53.9532 130.753 53.7167 115.546 58.0877L87.9753 66.0125L113.074 79.9038C114.93 80.9312 116.302 82.6541 116.888 84.6932C117.474 86.7324 117.226 88.9209 116.199 90.7772C115.171 92.6336 113.449 94.0058 111.409 94.5919C109.37 95.178 107.182 94.9301 105.325 93.9026L63.3289 70.6585C63.3027 70.644 63.2792 70.6264 63.2543 70.6115C63.0509 70.4972 62.8525 70.374 62.6597 70.2424C62.5527 70.1694 62.4549 70.0879 62.3539 70.0102C62.2481 69.9288 62.1394 69.8527 62.0382 69.767C61.9293 69.6747 61.8278 69.5751 61.7249 69.4781C61.6388 69.3962 61.5489 69.319 61.4661 69.2332C61.3683 69.1333 61.2788 69.0266 61.1874 68.9212C61.1066 68.8296 61.0244 68.7407 60.9465 68.6438C60.8658 68.542 60.7928 68.4342 60.7167 68.3281C60.6389 68.2209 60.5595 68.1165 60.4881 68.006C60.42 67.8998 60.3602 67.789 60.2958 67.6802C60.2282 67.5628 60.1573 67.4493 60.0948 67.3289C60.0307 67.2031 59.9766 67.0737 59.9184 66.9455C59.8697 66.8352 59.8155 66.7286 59.7697 66.6152C59.6816 66.3913 59.6037 66.1636 59.536 65.9327C59.5298 65.9109 59.5208 65.89 59.5141 65.8691C59.5062 65.8419 59.5021 65.8122 59.4943 65.785C59.4313 65.5599 59.3781 65.3322 59.3349 65.1025C59.3112 64.9739 59.2995 64.8463 59.282 64.7189C59.2642 64.5879 59.2437 64.4577 59.2318 64.3265C59.219 64.1823 59.2188 64.0381 59.2141 63.8938C59.21 63.7772 59.2032 63.6615 59.2045 63.5456C59.206 63.4024 59.2191 63.2611 59.2286 63.12C59.2368 63 59.24 62.8806 59.2535 62.7612C59.2694 62.6271 59.2941 62.4957 59.3158 62.3637C59.3363 62.2378 59.3523 62.1118 59.3799 61.9877C59.4082 61.8559 59.4467 61.7286 59.4803 61.5998C59.5141 61.4768 59.5425 61.3531 59.5817 61.2307C59.6285 61.0841 59.6855 60.9419 59.7412 60.7979C59.7794 60.6978 59.8123 60.5972 59.855 60.4974C59.9599 60.2528 60.0771 60.0136 60.2059 59.7807L83.4477 17.7885C84.4751 15.9321 86.1979 14.56 88.2371 13.9738C90.2763 13.3877 92.4648 13.6356 94.3211 14.6631C96.1775 15.6906 97.5497 17.4134 98.1358 19.4525C98.7219 21.4917 98.474 23.6802 97.4465 25.5365L83.5552 50.6347L111.125 42.7103C135.595 35.6766 161.857 38.6518 184.134 50.9813C206.41 63.3107 222.876 83.9846 229.91 108.455C236.944 132.925 233.969 159.187 221.639 181.463C209.31 203.74 188.636 220.206 164.166 227.24V227.24Z" fill="white"/>
</svg>
