<svg width="19" height="20" viewBox="0 0 19 20" fill="none" xmlns="http://www.w3.org/2000/svg">
<path d="M11.2824 20H7.71823C7.49492 20 7.2783 19.9221 7.1043 19.7792C6.93031 19.6362 6.80938 19.4368 6.7616 19.214L6.36308 17.33C5.83145 17.0921 5.32736 16.7946 4.86007 16.443L3.06136 17.028C2.84845 17.0973 2.61873 17.0902 2.41034 17.0078C2.20194 16.9254 2.02742 16.7727 1.91574 16.575L0.129759 13.424C0.0192565 13.2261 -0.0222234 12.9958 0.0121057 12.7708C0.0464349 12.5457 0.15454 12.3392 0.318736 12.185L1.71404 10.885C1.65058 10.2961 1.65058 9.70189 1.71404 9.113L0.318736 7.816C0.154308 7.66177 0.0460553 7.45507 0.0117206 7.22978C-0.0226142 7.00449 0.0190058 6.77397 0.129759 6.576L1.91183 3.423C2.0235 3.22532 2.19803 3.07259 2.40642 2.99019C2.61481 2.90778 2.84454 2.90066 3.05744 2.97L4.85615 3.555C5.09507 3.375 5.34377 3.207 5.60031 3.055C5.84804 2.913 6.10262 2.784 6.36308 2.669L6.76258 0.787C6.81013 0.564198 6.93083 0.364688 7.10464 0.221549C7.27845 0.0784098 7.49495 0.000239966 7.71823 0H11.2824C11.5057 0.000239966 11.7221 0.0784098 11.896 0.221549C12.0698 0.364688 12.1905 0.564198 12.238 0.787L12.6414 2.67C12.9156 2.794 13.1839 2.933 13.4434 3.088C13.6852 3.231 13.9192 3.388 14.1444 3.557L15.9441 2.972C16.1569 2.90292 16.3864 2.91017 16.5946 2.99256C16.8028 3.07495 16.9771 3.22753 17.0888 3.425L18.8708 6.578C19.098 6.985 19.0197 7.5 18.6819 7.817L17.2866 9.117C17.35 9.70589 17.35 10.3001 17.2866 10.889L18.6819 12.189C19.0197 12.507 19.098 13.021 18.8708 13.428L17.0888 16.581C16.9771 16.7787 16.8026 16.9314 16.5942 17.0138C16.3858 17.0962 16.1561 17.1033 15.9432 17.034L14.1444 16.449C13.6775 16.8003 13.1737 17.0975 12.6424 17.335L12.238 19.214C12.1903 19.4366 12.0695 19.6359 11.8957 19.7788C11.7219 19.9218 11.5055 19.9998 11.2824 20V20ZM9.49638 6C8.45763 6 7.46142 6.42143 6.72691 7.17157C5.9924 7.92172 5.57975 8.93913 5.57975 10C5.57975 11.0609 5.9924 12.0783 6.72691 12.8284C7.46142 13.5786 8.45763 14 9.49638 14C10.5351 14 11.5313 13.5786 12.2659 12.8284C13.0004 12.0783 13.413 11.0609 13.413 10C13.413 8.93913 13.0004 7.92172 12.2659 7.17157C11.5313 6.42143 10.5351 6 9.49638 6V6Z" fill="#262626"/>
</svg>
