<svg width="109" height="100" viewBox="0 0 109 100" fill="none" xmlns="http://www.w3.org/2000/svg">
<path d="M104 50C104 61.7425 99.8672 73.1103 92.3259 82.1111C84.7847 91.1119 74.3161 97.1714 62.7551 99.2275C51.194 101.284 39.2782 99.2052 29.0959 93.3565C18.9137 87.5078 11.1148 78.262 7.06605 67.2396L9.49839 66.3462C13.3373 76.7973 20.732 85.564 30.3866 91.1096C40.0411 96.6552 51.3395 98.6259 62.3013 96.6763C73.2632 94.7268 83.1893 88.9813 90.3397 80.447C97.4901 71.9126 101.409 61.1339 101.409 50H104Z" fill="white"/>
<path d="M4.09388 46.9374C4.79438 35.5225 9.38687 24.6927 17.1055 16.2539C24.8242 7.81512 35.2025 2.27741 46.5099 0.564205C57.8172 -1.149 69.3701 1.06586 79.2421 6.83944C89.1142 12.613 96.7086 21.5964 100.759 32.2914L98.3358 33.2092C94.4952 23.0684 87.2944 14.5506 77.934 9.07622C68.5736 3.60185 57.6194 1.50178 46.898 3.1262C36.1767 4.75061 26.3362 10.0013 19.0176 18.0028C11.6989 26.0042 7.34444 36.2728 6.68025 47.0961L4.09388 46.9374Z" fill="white"/>
<path d="M1 42.5L5.5 47.5L10.5 43.5" stroke="white" stroke-width="2"/>
<path d="M107.5 53L103 48L98 52" stroke="white" stroke-width="2"/>
</svg>
