<svg width="33" height="33" viewBox="0 0 33 33" fill="none" xmlns="http://www.w3.org/2000/svg">
<path d="M2.22001 22.2L0.320008 30.4C0.254464 30.6998 0.256711 31.0104 0.326584 31.3092C0.396457 31.6079 0.532191 31.8873 0.723871 32.1269C0.915551 32.3665 1.15833 32.5603 1.43448 32.694C1.71063 32.8278 2.01318 32.8982 2.32001 32.9C2.46298 32.9145 2.60704 32.9145 2.75001 32.9L11 31L26.84 15.22L18 6.40002L2.22001 22.2Z" fill="black"/>
<path d="M31.82 7.31997L25.92 1.41997C25.5321 1.03403 25.0072 0.817383 24.46 0.817383C23.9128 0.817383 23.3879 1.03403 23 1.41997L19.72 4.69997L28.55 13.53L31.83 10.25C32.022 10.057 32.174 9.82817 32.2774 9.57643C32.3808 9.3247 32.4335 9.05504 32.4326 8.7829C32.4317 8.51075 32.3771 8.24146 32.272 7.99044C32.1668 7.73941 32.0133 7.51158 31.82 7.31997V7.31997Z" fill="black"/>
</svg>
