<svg width="47" height="33" viewBox="0 0 47 33" fill="none" xmlns="http://www.w3.org/2000/svg">
<path d="M16.5 0C13.2366 3.89156e-08 10.0465 0.967708 7.33309 2.78075C4.61968 4.59379 2.50483 7.17074 1.25599 10.1857C0.00714111 13.2007 -0.319614 16.5183 0.317043 19.719C0.953701 22.9197 2.52517 25.8597 4.83274 28.1673C7.1403 30.4748 10.0803 32.0463 13.281 32.683C16.4817 33.3196 19.7993 32.9929 22.8143 31.744C25.8293 30.4952 28.4062 28.3803 30.2192 25.6669C32.0323 22.9535 33 19.7634 33 16.5H16.5V0Z" fill="#FF6B66"/>
<path d="M20.0817 2.4C20.599 2.4 21.0497 2.48533 21.4337 2.656C21.8177 2.82667 22.1137 3.072 22.3217 3.392C22.5297 3.712 22.6337 4.08533 22.6337 4.512C22.6337 4.93867 22.5297 5.312 22.3217 5.632C22.1137 5.952 21.8177 6.19733 21.4337 6.368C21.0497 6.53867 20.599 6.624 20.0817 6.624H19.2737V8H17.3857V2.4H20.0817ZM19.9617 5.168C20.2177 5.168 20.4097 5.112 20.5377 5C20.6657 4.88267 20.7297 4.72 20.7297 4.512C20.7297 4.304 20.6657 4.144 20.5377 4.032C20.4097 3.91467 20.2177 3.856 19.9617 3.856H19.2737V5.168H19.9617ZM26.267 8.128C25.6643 8.128 25.123 8.00267 24.643 7.752C24.163 7.50133 23.787 7.15467 23.515 6.712C23.243 6.264 23.107 5.76 23.107 5.2C23.107 4.64 23.243 4.13867 23.515 3.696C23.787 3.248 24.163 2.89867 24.643 2.648C25.123 2.39733 25.6643 2.272 26.267 2.272C26.8697 2.272 27.411 2.39733 27.891 2.648C28.371 2.89867 28.747 3.248 29.019 3.696C29.291 4.13867 29.427 4.64 29.427 5.2C29.427 5.76 29.291 6.264 29.019 6.712C28.747 7.15467 28.371 7.50133 27.891 7.752C27.411 8.00267 26.8697 8.128 26.267 8.128ZM26.267 6.6C26.5017 6.6 26.7123 6.544 26.899 6.432C27.091 6.31467 27.243 6.152 27.355 5.944C27.467 5.73067 27.523 5.48267 27.523 5.2C27.523 4.91733 27.467 4.672 27.355 4.464C27.243 4.25067 27.091 4.088 26.899 3.976C26.7123 3.85867 26.5017 3.8 26.267 3.8C26.0323 3.8 25.819 3.85867 25.627 3.976C25.4403 4.088 25.291 4.25067 25.179 4.464C25.067 4.672 25.011 4.91733 25.011 5.2C25.011 5.48267 25.067 5.73067 25.179 5.944C25.291 6.152 25.4403 6.31467 25.627 6.432C25.819 6.544 26.0323 6.6 26.267 6.6ZM35.1123 8L35.0963 5.448L33.8802 7.496H33.0483L31.8323 5.536V8H30.1123V2.4H31.6643L33.4883 5.384L35.2643 2.4H36.8163L36.8323 8H35.1123ZM40.6811 8.128C40.0784 8.128 39.5371 8.00267 39.0571 7.752C38.5771 7.50133 38.2011 7.15467 37.9291 6.712C37.6571 6.264 37.5211 5.76 37.5211 5.2C37.5211 4.64 37.6571 4.13867 37.9291 3.696C38.2011 3.248 38.5771 2.89867 39.0571 2.648C39.5371 2.39733 40.0784 2.272 40.6811 2.272C41.2837 2.272 41.8251 2.39733 42.3051 2.648C42.7851 2.89867 43.1611 3.248 43.4331 3.696C43.7051 4.13867 43.8411 4.64 43.8411 5.2C43.8411 5.76 43.7051 6.264 43.4331 6.712C43.1611 7.15467 42.7851 7.50133 42.3051 7.752C41.8251 8.00267 41.2837 8.128 40.6811 8.128ZM40.6811 6.6C40.9157 6.6 41.1264 6.544 41.3131 6.432C41.5051 6.31467 41.6571 6.152 41.7691 5.944C41.8811 5.73067 41.9371 5.48267 41.9371 5.2C41.9371 4.91733 41.8811 4.672 41.7691 4.464C41.6571 4.25067 41.5051 4.088 41.3131 3.976C41.1264 3.85867 40.9157 3.8 40.6811 3.8C40.4464 3.8 40.2331 3.85867 40.0411 3.976C39.8544 4.088 39.7051 4.25067 39.5931 4.464C39.4811 4.672 39.4251 4.91733 39.4251 5.2C39.4251 5.48267 39.4811 5.73067 39.5931 5.944C39.7051 6.152 39.8544 6.31467 40.0411 6.432C40.2331 6.544 40.4464 6.6 40.6811 6.6ZM17.8896 8.4H20.6496C21.2736 8.4 21.8229 8.51467 22.2976 8.744C22.7776 8.968 23.1483 9.29067 23.4096 9.712C23.6763 10.1333 23.8096 10.6293 23.8096 11.2C23.8096 11.7707 23.6763 12.2667 23.4096 12.688C23.1483 13.1093 22.7776 13.4347 22.2976 13.664C21.8229 13.888 21.2736 14 20.6496 14H17.8896V8.4ZM20.5696 12.528C20.9749 12.528 21.2976 12.4133 21.5376 12.184C21.7829 11.9493 21.9056 11.6213 21.9056 11.2C21.9056 10.7787 21.7829 10.4533 21.5376 10.224C21.2976 9.98933 20.9749 9.872 20.5696 9.872H19.7776V12.528H20.5696ZM27.435 14.128C26.8323 14.128 26.291 14.0027 25.811 13.752C25.331 13.5013 24.955 13.1547 24.683 12.712C24.411 12.264 24.275 11.76 24.275 11.2C24.275 10.64 24.411 10.1387 24.683 9.696C24.955 9.248 25.331 8.89867 25.811 8.648C26.291 8.39733 26.8323 8.272 27.435 8.272C28.0376 8.272 28.579 8.39733 29.059 8.648C29.539 8.89867 29.915 9.248 30.187 9.696C30.459 10.1387 30.595 10.64 30.595 11.2C30.595 11.76 30.459 12.264 30.187 12.712C29.915 13.1547 29.539 13.5013 29.059 13.752C28.579 14.0027 28.0376 14.128 27.435 14.128ZM27.435 12.6C27.6696 12.6 27.8803 12.544 28.067 12.432C28.259 12.3147 28.411 12.152 28.523 11.944C28.635 11.7307 28.691 11.4827 28.691 11.2C28.691 10.9173 28.635 10.672 28.523 10.464C28.411 10.2507 28.259 10.088 28.067 9.976C27.8803 9.85867 27.6696 9.8 27.435 9.8C27.2003 9.8 26.987 9.85867 26.795 9.976C26.6083 10.088 26.459 10.2507 26.347 10.464C26.235 10.672 26.179 10.9173 26.179 11.2C26.179 11.4827 26.235 11.7307 26.347 11.944C26.459 12.152 26.6083 12.3147 26.795 12.432C26.987 12.544 27.2003 12.6 27.435 12.6ZM33.6802 12.592H33.1682V14H31.2802V8.4H33.9762C34.4936 8.4 34.9442 8.48533 35.3282 8.656C35.7122 8.82667 36.0082 9.072 36.2162 9.392C36.4242 9.712 36.5282 10.0853 36.5282 10.512C36.5282 10.912 36.4376 11.2613 36.2562 11.56C36.0749 11.8587 35.8136 12.096 35.4722 12.272L36.6482 14H34.6322L33.6802 12.592ZM34.6242 10.512C34.6242 10.304 34.5602 10.144 34.4322 10.032C34.3042 9.91467 34.1122 9.856 33.8562 9.856H33.1682V11.168H33.8562C34.1122 11.168 34.3042 11.112 34.4322 11C34.5602 10.8827 34.6242 10.72 34.6242 10.512ZM40.1772 14.128C39.5745 14.128 39.0332 14.0027 38.5532 13.752C38.0732 13.5013 37.6972 13.1547 37.4252 12.712C37.1532 12.264 37.0172 11.76 37.0172 11.2C37.0172 10.64 37.1532 10.1387 37.4252 9.696C37.6972 9.248 38.0732 8.89867 38.5532 8.648C39.0332 8.39733 39.5745 8.272 40.1772 8.272C40.7798 8.272 41.3212 8.39733 41.8012 8.648C42.2812 8.89867 42.6572 9.248 42.9292 9.696C43.2012 10.1387 43.3372 10.64 43.3372 11.2C43.3372 11.76 43.2012 12.264 42.9292 12.712C42.6572 13.1547 42.2812 13.5013 41.8012 13.752C41.3212 14.0027 40.7798 14.128 40.1772 14.128ZM40.1772 12.6C40.4118 12.6 40.6225 12.544 40.8092 12.432C41.0012 12.3147 41.1532 12.152 41.2652 11.944C41.3772 11.7307 41.4332 11.4827 41.4332 11.2C41.4332 10.9173 41.3772 10.672 41.2652 10.464C41.1532 10.2507 41.0012 10.088 40.8092 9.976C40.6225 9.85867 40.4118 9.8 40.1772 9.8C39.9425 9.8 39.7292 9.85867 39.5372 9.976C39.3505 10.088 39.2012 10.2507 39.0892 10.464C38.9772 10.672 38.9212 10.9173 38.9212 11.2C38.9212 11.4827 38.9772 11.7307 39.0892 11.944C39.2012 12.152 39.3505 12.3147 39.5372 12.432C39.7292 12.544 39.9425 12.6 40.1772 12.6Z" fill="#FF6B66"/>
</svg>
