<svg width="33" height="33" viewBox="0 0 33 33" fill="none" xmlns="http://www.w3.org/2000/svg">
<circle cx="16.5" cy="16.5" r="16.5" fill="#2F2F2F"/>
<path d="M23.4115 21.0573C23.0353 20.1591 22.4892 19.3433 21.8038 18.6553C21.1205 17.9652 20.3111 17.4151 19.4202 17.0352C19.4122 17.0312 19.4042 17.0291 19.3963 17.0251C20.6389 16.1206 21.4468 14.6472 21.4468 12.9849C21.4468 10.2312 19.2327 8 16.5 8C13.7673 8 11.5532 10.2312 11.5532 12.9849C11.5532 14.6472 12.3611 16.1206 13.6037 17.0271C13.5958 17.0312 13.5878 17.0332 13.5798 17.0372C12.6862 17.4171 11.8843 17.9618 11.1962 18.6573C10.5114 19.3459 9.96548 20.1615 9.58848 21.0593C9.21811 21.9382 9.01836 22.8805 9.00005 23.8352C8.99952 23.8566 9.00325 23.878 9.01103 23.8979C9.01881 23.9179 9.03048 23.9361 9.04535 23.9515C9.06022 23.9668 9.078 23.9791 9.09762 23.9874C9.11725 23.9957 9.13833 24 9.15962 24H10.3564C10.4442 24 10.514 23.9296 10.516 23.8432C10.5559 22.2915 11.1742 20.8382 12.2673 19.7367C13.3983 18.597 14.9003 17.9698 16.5 17.9698C18.0997 17.9698 19.6017 18.597 20.7327 19.7367C21.8258 20.8382 22.4441 22.2915 22.484 23.8432C22.486 23.9317 22.5558 24 22.6436 24H23.8404C23.8617 24 23.8828 23.9957 23.9024 23.9874C23.922 23.9791 23.9398 23.9668 23.9546 23.9515C23.9695 23.9361 23.9812 23.9179 23.989 23.8979C23.9967 23.878 24.0005 23.8566 24 23.8352C23.98 22.8744 23.7825 21.9397 23.4115 21.0573V21.0573ZM16.5 16.4422C15.5844 16.4422 14.7228 16.0824 14.0745 15.4291C13.4262 14.7759 13.0692 13.9075 13.0692 12.9849C13.0692 12.0623 13.4262 11.194 14.0745 10.5407C14.7228 9.88744 15.5844 9.52764 16.5 9.52764C17.4156 9.52764 18.2772 9.88744 18.9255 10.5407C19.5738 11.194 19.9308 12.0623 19.9308 12.9849C19.9308 13.9075 19.5738 14.7759 18.9255 15.4291C18.2772 16.0824 17.4156 16.4422 16.5 16.4422Z" fill="white"/>
</svg>
